# xmcd
#
# Track frame offsets:
#	150
#	11595
#	21142
#	31588
#	41495
#	52834
#	63701
#	74868
#	89889
#	99818
#	107737
#	118745
#	129679
#	140732
#	152769
#	162218
#
# Disc length: 2351 seconds
#
# Revision: 0
# Processed by: cddbd v1.5.2PL0 Copyright (c) Steve Scherf et al.
# Submitted via: EasyCDDAExtractor 16.0.1.1
#
DISCID=dd092d10
DTITLE=Johnny Duncan - Last Train To San Fernando
DYEAR=1900
DGENRE=Country
TTITLE0=Last Train To San Fernando
TTITLE1=Itching For My Baby
TTITLE2=Geisha Girl
TTITLE3=Jig Along Home
TTITLE4=Railroad Steamboat  River And Canal
TTITLE5=I Heart The Bluebirds Sing
TTITLE6=Git Along Home Cindy
TTITLE7=Raise A Ruckus Tonight+Rock-A-Billy Baby+Detour
TTITLE8=Rock-A-Billy-Baby
TTITLE9=Dang Me
TTITLE10=Which Way Did He Go?
TTITLE11=Blue  Blue Heartache
TTITLE12=Footprints In The Snow
TTITLE13=My Little Baby
TTITLE14=Yellow Moon
TTITLE15=Pan American+ I'm Movin' On+Last Train To San Fernando
EXTD=
EXTT0=
EXTT1=
EXTT2=
EXTT3=
EXTT4=
EXTT5=
EXTT6=
EXTT7=
EXTT8=
EXTT9=
EXTT10=
EXTT11=
EXTT12=
EXTT13=
EXTT14=
EXTT15=
PLAYORDER=
